<?xml version="1.0" encoding="UTF-8"?>
<!-- Generator: visioncortex VTracer 0.6.12 -->
<svg version="1.1" xmlns="http://www.w3.org/2000/svg" width="399" height="421">
<path d="M0 0 C1.5675 -0.0825 3.135 -0.165 4.75 -0.25 C6.4825 -0.1675 8.215 -0.085 10 0 C11.258125 0.37125 12.51625 0.7425 13.8125 1.125 C14.3384375 1.434375 14.3384375 1.434375 17 3 C17.4640625 3.4846875 17.4640625 3.4846875 19.8125 5.9375 C20.534375 6.948125 21.25625 7.95875 22 9 C22.33 9.66 22.33 9.66 24 13 C24.12375 14.5675 24.2475 16.135 24.375 17.75 C24.313125 18.61625 24.313125 18.61625 24 23 C22.68 25.64 21.36 28.28 20 31 C21.93875 33.68125 23.8775 36.3625 25.875 39.125 C27.050625 40.754375 27.050625 40.754375 33 49 C34.670625 51.330625 36.34125 53.66125 38.0625 56.0625 C39.691875 58.351875 41.32125 60.64125 43 63 C44.918125 65.7225 46.83625 68.445 48.8125 71.25 C50.854375 74.1375 52.89625 77.025 55 80 C57.124375 82.949375 59.24875 85.89875 61.4375 88.9375 C63.603125 91.928125 65.76875 94.91875 68 98 C70.145 100.97 72.29 103.94 74.5 107 C76.645 109.97 78.79 112.94 81 116 C83.206875 119.0525 85.41375 122.105 87.6875 125.25 C89.770625 128.1375 91.85375 131.025 94 134 C95.65 136.31 97.3 138.62 99 141 C100.65 143.31 102.3 145.62 104 148 C106.083125 150.8875 108.16625 153.775 110.3125 156.75 C112.519375 159.8025 114.72625 162.855 117 166 C119.165625 168.990625 121.33125 171.98125 123.5625 175.0625 C124.6246875 176.5371875 124.6246875 176.5371875 130 184 C132.145 187.031875 134.29 190.06375 136.5 193.1875 C137.4075 194.4765625 137.4075 194.4765625 142 201 C143.65 203.31 145.3 205.62 147 208 C147 208.66 147 209.32 147 210 C147.845625 209.67 148.69125 209.34 149.5625 209 C150.696875 208.67 151.83125 208.34 153 208 C154.134375 207.896875 155.26875 207.79375 156.4375 207.6875 C157.0253125 207.7390625 157.0253125 207.7390625 160 208 C161.175625 208.350625 162.35125 208.70125 163.5625 209.0625 C164.696875 209.701875 165.83125 210.34125 167 211 C168.093125 212.093125 169.18625 213.18625 170.3125 214.3125 C171.199375 215.529375 172.08625 216.74625 173 218 C173.474375 218.94875 173.94875 219.8975 174.4375 220.875 C174.623125 221.90625 174.80875 222.9375 175 224 C174.95875 225.485 174.9175 226.97 174.875 228.5 C174.58625 229.985 174.2975 231.47 174 233 C173.401875 234.093125 172.80375 235.18625 172.1875 236.3125 C171.8265625 236.7559375 171.8265625 236.7559375 170 239 C169.360625 239.7425 168.72125 240.485 168.0625 241.25 C167.381875 241.8275 166.70125 242.405 166 243 C165.29875 243.4125 164.5975 243.825 163.875 244.25 C162.92625 244.4975 161.9775 244.745 161 245 C159.370625 245.0825 157.74125 245.165 156.0625 245.25 C154.391875 245.1675 152.72125 245.085 151 245 C149.80375 244.67 148.6075 244.34 147.375 244 C146.59125 243.67 145.8075 243.34 145 243 C144.34 244.32 143.68 245.64 143 247 C142.2471875 247.8353125 142.2471875 247.8353125 138.4375 252.0625 C137.5403125 253.0421875 137.5403125 253.0421875 133 258 C131.576875 259.7325 130.15375 261.465 128.6875 263.25 C127.140625 265.1475 125.59375 267.045 124 269 C121.916875 271.413125 119.83375 273.82625 117.6875 276.3125 C115.480625 278.849375 113.27375 281.38625 111 284 C109.9996875 285.1653125 109.9996875 285.1653125 104.9375 291.0625 C102.978125 293.351875 101.01875 295.64125 99 298 C97.040625 300.289375 95.08125 302.57875 93.0625 304.9375 C92.0621875 306.1028125 92.0621875 306.1028125 87 312 C84.81375 314.51625 82.6275 317.0325 80.375 319.625 C78.27125 322.05875 76.1675 324.4925 74 327 C72.081875 329.289375 70.16375 331.57875 68.1875 333.9375 C66.805625 335.608125 65.42375 337.27875 64 339 C64.99 341.31 65.98 343.62 67 346 C67.144375 347.464375 67.28875 348.92875 67.4375 350.4375 C67.293125 351.943125 67.14875 353.44875 67 355 C66.443125 356.423125 65.88625 357.84625 65.3125 359.3125 C64.549375 360.529375 63.78625 361.74625 63 363 C62.195625 363.78375 61.39125 364.5675 60.5625 365.375 C59.716875 365.91125 58.87125 366.4475 58 367 C57.2575 367.4125 56.515 367.825 55.75 368.25 C54.8425 368.4975 53.935 368.745 53 369 C51.576875 369.12375 50.15375 369.2475 48.6875 369.375 C47.140625 369.25125 45.59375 369.1275 44 369 C43.3090625 368.7628125 43.3090625 368.7628125 39.8125 367.5625 C38.554375 366.716875 37.29625 365.87125 36 365 C34.845 363.618125 33.69 362.23625 32.5 360.8125 C31.675 359.224375 30.85 357.63625 30 356 C29.87625 354.329375 29.7525 352.65875 29.625 350.9375 C29.686875 350.2878125 29.686875 350.2878125 30 347 C28.35 346.67 26.7 346.34 25 346 C21.3803125 344.6078125 21.3803125 344.6078125 3.0625 337.5625 C-5.868125 334.076875 -14.79875 330.59125 -24 327 C-31.59 324.03 -39.18 321.06 -47 318 C-54.59 315.03 -62.18 312.06 -70 309 C-78.724375 305.6175 -87.44875 302.235 -96.4375 298.75 C-103.883125 295.8625 -111.32875 292.975 -119 290 C-123.95 288.02 -128.9 286.04 -134 284 C-135.32 284.33 -136.64 284.66 -138 285 C-138.825 285.639375 -139.65 286.27875 -140.5 286.9375 C-141.325 287.618125 -142.15 288.29875 -143 289 C-144.32 289.66 -145.64 290.32 -147 291 C-148.5675 291.12375 -150.135 291.2475 -151.75 291.375 C-153.4825 291.25125 -155.215 291.1275 -157 291 C-158.423125 290.484375 -159.84625 289.96875 -161.3125 289.4375 C-162.529375 288.633125 -163.74625 287.82875 -165 287 C-165.969375 285.824375 -166.93875 284.64875 -167.9375 283.4375 C-168.618125 282.303125 -169.29875 281.16875 -170 280 C-170.165 279.505 -170.165 279.505 -171 277 C-171.103125 275.618125 -171.20625 274.23625 -171.3125 272.8125 C-171.209375 271.224375 -171.10625 269.63625 -171 268 C-170.484375 266.5975 -169.96875 265.195 -169.4375 263.75 C-168.633125 262.5125 -167.82875 261.275 -167 260 C-165.824375 259.030625 -164.64875 258.06125 -163.4375 257.0625 C-162.303125 256.381875 -161.16875 255.70125 -160 255 C-159.01 254.67 -158.02 254.34 -157 254 C-153.04 254 -149.08 254 -145 254 C-142.855 250.761875 -140.71 247.52375 -138.5 244.1875 C-136.355 240.165625 -134.21 236.14375 -132 232 C-130.081875 228.9475 -128.16375 225.895 -126.1875 222.75 C-124.145625 219.5325 -122.10375 216.315 -120 213 C-117.380625 208.75125 -114.76125 204.5025 -112.0625 200.125 C-109.401875 195.79375 -106.74125 191.4625 -104 187 C-101.793125 183.431875 -99.58625 179.86375 -97.3125 176.1875 C-95.229375 172.825625 -93.14625 169.46375 -91 166 C-88.89625 162.596875 -86.7925 159.19375 -84.625 155.6875 C-82.43875 152.160625 -80.2525 148.63375 -78 145 C-75.586875 141.143125 -73.17375 137.28625 -70.6875 133.3125 C-68.150625 129.249375 -65.61375 125.18625 -63 121 C-61.659375 118.8240625 -61.659375 118.8240625 -54.875 107.8125 C-52.27625 103.584375 -49.6775 99.35625 -47 95 C-45.8965625 93.2159375 -45.8965625 93.2159375 -40.3125 84.1875 C-38.229375 80.825625 -36.14625 77.46375 -34 74 C-31.834375 70.49375 -29.66875 66.9875 -27.4375 63.375 C-25.313125 59.95125 -23.18875 56.5275 -21 53 C-18.73125 49.535 -16.4625 46.07 -14.125 42.5 C-12.43375 39.695 -10.7425 36.89 -9 34 C-9.33 32.35 -9.66 30.7 -10 29 C-10.515625 27.906875 -11.03125 26.81375 -11.5625 25.6875 C-12.036875 24.470625 -12.51125 23.25375 -13 22 C-13.0721875 21.3503125 -13.0721875 21.3503125 -13.4375 18.0625 C-13.293125 16.721875 -13.14875 15.38125 -13 14 C-12.46375 12.618125 -11.9275 11.23625 -11.375 9.8125 C-10.59125 8.554375 -9.8075 7.29625 -9 6 C-8.4946875 5.5153125 -8.4946875 5.5153125 -5.9375 3.0625 C-4.968125 2.381875 -3.99875 1.70125 -3 1 C-2.01 0.67 -1.02 0.34 0 0 Z M-2 36 C-3.8975 39.0525 -5.795 42.105 -7.75 45.25 C-10.1425 49.1275 -12.535 53.005 -15 57 C-17.000625 60.34125 -19.00125 63.6825 -21.0625 67.125 C-23.021875 70.38375 -24.98125 73.6425 -27 77 C-28.8975 80.01125 -30.795 83.0225 -32.75 86.125 C-34.8125 89.38375 -36.875 92.6425 -39 96 C-41.68125 100.351875 -44.3625 104.70375 -47.125 109.1875 C-49.72375 113.415625 -52.3225 117.64375 -55 122 C-56.711875 124.743125 -58.42375 127.48625 -60.1875 130.3125 C-61.775625 132.849375 -63.36375 135.38625 -65 138 C-67.10375 141.403125 -69.2075 144.80625 -71.375 148.3125 C-73.56125 151.839375 -75.7475 155.36625 -78 159 C-78.94875 160.4953125 -78.94875 160.4953125 -83.75 168.0625 C-85.8125 171.341875 -87.875 174.62125 -90 178 C-92.805 182.62 -95.61 187.24 -98.5 192 C-101.305 196.62 -104.11 201.24 -107 206 C-109.10375 209.34125 -111.2075 212.6825 -113.375 216.125 C-115.23125 219.05375 -117.0875 221.9825 -119 225 C-120.876875 228.073125 -122.75375 231.14625 -124.6875 234.3125 C-125.5640625 235.7459375 -125.5640625 235.7459375 -130 243 C-130.86625 244.2890625 -130.86625 244.2890625 -135.25 250.8125 C-136.4875 252.854375 -137.725 254.89625 -139 257 C-138.835 257.825 -138.835 257.825 -138 262 C-137.8246875 262.3815625 -137.8246875 262.3815625 -136.9375 264.3125 C-136.298125 264.869375 -135.65875 265.42625 -135 266 C-132.36 266 -129.72 266 -127 266 C-101.87875 262.225625 -76.7575 258.45125 -50.875 254.5625 C-38.355625 252.6546875 -38.355625 252.6546875 25 243 C26.98 242.67 28.96 242.34 31 242 C27.4525 214.424375 23.905 186.84875 20.25 158.4375 C16.5375 129.583125 12.825 100.72875 9 71 C8.34 65.885 8.34 65.885 5 40 C4.67 39.01 4.34 38.02 4 37 C2.02 36.67 0.04 36.34 -2 36 Z M13 35 C12.34 35.66 11.68 36.32 11 37 C15.063125 69.030625 19.12625 101.06125 23.3125 134.0625 C27.499375 166.381875 31.68625 198.70125 36 232 C36.33 234.97 36.66 237.94 37 241 C39.76375 240.5978125 39.76375 240.5978125 53.75 238.5625 C61.7525 237.386875 69.755 236.21125 78 235 C88.745625 233.39125 99.49125 231.7825 110.5625 230.125 C119.616875 228.76375 128.67125 227.4025 138 226 C138.99 223.03 139.98 220.06 141 217 C141.33 215.68 141.66 214.36 142 213 C139.958125 210.133125 137.91625 207.26625 135.8125 204.3125 C133.234375 200.909375 130.65625 197.50625 128 194 C126.9996875 192.5871875 126.9996875 192.5871875 121.9375 185.4375 C119.978125 182.653125 118.01875 179.86875 116 177 C113.81375 173.968125 111.6275 170.93625 109.375 167.8125 C107.27125 164.904375 105.1675 161.99625 103 159 C101.35 156.69 99.7 154.38 98 152 C96.35 149.69 94.7 147.38 93 145 C90.916875 142.1125 88.83375 139.225 86.6875 136.25 C85.5840625 134.72375 85.5840625 134.72375 80 127 C77.855 124.03 75.71 121.06 73.5 118 C71.355 115.03 69.21 112.06 67 109 C65.8965625 107.47375 65.8965625 107.47375 60.3125 99.75 C58.229375 96.8625 56.14625 93.975 54 91 C52.35 88.69 50.7 86.38 49 84 C47.35 81.69 45.7 79.38 44 77 C41.9375 74.15375 39.875 71.3075 37.75 68.375 C36.63625 66.828125 36.63625 66.828125 31 59 C29.7521875 57.205625 29.7521875 57.205625 23.4375 48.125 C21.313125 45.11375 19.18875 42.1025 17 39 C15.68 37.68 14.36 36.36 13 35 Z M133 233 C117.551875 235.289375 102.10375 237.57875 86.1875 239.9375 C70.945625 242.268125 55.70375 244.59875 40 247 C39.67 247.33 39.34 247.66 39 248 C39.33 252.95 39.66 257.9 40 263 C41.505625 274.694375 43.01125 286.38875 44.5625 298.4375 C46.026875 309.513125 47.49125 320.58875 49 332 C52.3 332.66 55.6 333.32 59 334 C60.299375 332.39125 61.59875 330.7825 62.9375 329.125 C64.608125 327.10375 66.27875 325.0825 68 323 C69.485 321.35 70.97 319.7 72.5 318 C73.985 316.35 75.47 314.7 77 313 C78.464375 311.205625 79.92875 309.41125 81.4375 307.5625 C82.943125 305.726875 84.44875 303.89125 86 302 C86.825 301.0925 86.825 301.0925 91 296.5 C92.65 294.685 94.3 292.87 96 291 C96.7425 290.0925 96.7425 290.0925 100.5 285.5 C101.2425 284.5925 101.2425 284.5925 105 280 C106.65 278.185 108.3 276.37 110 274.5 C111.65 272.685 113.3 270.87 115 269 C116.505625 267.164375 118.01125 265.32875 119.5625 263.4375 C121.026875 261.643125 122.49125 259.84875 124 258 C125.505625 256.329375 127.01125 254.65875 128.5625 252.9375 C130.026875 251.308125 131.49125 249.67875 133 248 C134.505625 246.14375 136.01125 244.2875 137.5625 242.375 C138.696875 240.93125 139.83125 239.4875 141 238 C140.67 237.175 140.67 237.175 139 233 C137.02 233 135.04 233 133 233 Z M27 249 C9.38625 251.660625 -8.2275 254.32125 -26.375 257.0625 C-36.048125 258.5371875 -36.048125 258.5371875 -85 266 C-100.51 268.31 -116.02 270.62 -132 273 C-132.66 273.33 -133.32 273.66 -134 274 C-134 274.66 -134 275.32 -134 276 C-130.349375 277.505625 -126.69875 279.01125 -122.9375 280.5625 C-117.678125 282.686875 -112.41875 284.81125 -107 287 C-100.85375 289.371875 -94.7075 291.74375 -88.375 294.1875 C-81.65125 296.765625 -74.9275 299.34375 -68 302 C-61.379375 304.578125 -54.75875 307.15625 -47.9375 309.8125 C-44.4828125 311.1634375 -44.4828125 311.1634375 -27 318 C-18.770625 321.2175 -10.54125 324.435 -2.0625 327.75 C4.888125 330.4725 11.83875 333.195 19 336 C22.3 337.32 25.6 338.64 29 340 C29.825 339.835 29.825 339.835 34 339 C35.051875 338.175 36.10375 337.35 37.1875 336.5 C38.115625 335.675 39.04375 334.85 40 334 C40.66 333.67 41.32 333.34 42 333 C41.34 326.4 40.68 319.8 40 313 C38.63875 302.0275 37.2775 291.055 35.875 279.75 C34.59625 269.6025 33.3175 259.455 32 249 C30.35 249 28.7 249 27 249 Z " fill="#3A3A3E" transform="translate(199,20)"/>
<path d="M0 0 C0.5671875 -0.0515625 0.5671875 -0.0515625 3.4375 -0.3125 C4.613125 -0.209375 5.78875 -0.10625 7 0 C7.5878125 0.1753125 7.5878125 0.1753125 10.5625 1.0625 C11.696875 1.701875 12.83125 2.34125 14 3 C15.093125 4.093125 16.18625 5.18625 17.3125 6.3125 C18.199375 7.529375 19.08625 8.74625 20 10 C20.474375 10.94875 20.94875 11.8975 21.4375 12.875 C21.623125 13.90625 21.80875 14.9375 22 16 C21.95875 17.485 21.9175 18.97 21.875 20.5 C21.58625 21.985 21.2975 23.47 21 25 C20.401875 26.093125 19.80375 27.18625 19.1875 28.3125 C18.465625 29.199375 17.74375 30.08625 17 31 C16.6803125 31.37125 16.6803125 31.37125 15.0625 33.25 C14.381875 33.8275 13.70125 34.405 13 35 C12.29875 35.4125 11.5975 35.825 10.875 36.25 C9.92625 36.4975 8.9775 36.745 8 37 C6.370625 37.0825 4.74125 37.165 3.0625 37.25 C1.391875 37.1675 -0.27875 37.085 -2 37 C-3.19625 36.67 -4.3925 36.34 -5.625 36 C-6.40875 35.67 -7.1925 35.34 -8 35 C-8.66 36.32 -9.32 37.64 -10 39 C-11.505625 40.670625 -13.01125 42.34125 -14.5625 44.0625 C-16.356875 46.021875 -18.15125 47.98125 -20 50 C-21.423125 51.7325 -22.84625 53.465 -24.3125 55.25 C-25.859375 57.1475 -27.40625 59.045 -29 61 C-31.083125 63.413125 -33.16625 65.82625 -35.3125 68.3125 C-36.4159375 69.5809375 -36.4159375 69.5809375 -42 76 C-43.0003125 77.1653125 -43.0003125 77.1653125 -48.0625 83.0625 C-50.021875 85.351875 -51.98125 87.64125 -54 90 C-55.959375 92.289375 -57.91875 94.57875 -59.9375 96.9375 C-60.9378125 98.1028125 -60.9378125 98.1028125 -66 104 C-67.093125 105.258125 -67.093125 105.258125 -72.625 111.625 C-74.72875 114.05875 -76.8325 116.4925 -79 119 C-80.918125 121.289375 -82.83625 123.57875 -84.8125 125.9375 C-86.194375 127.608125 -87.57625 129.27875 -89 131 C-88.01 133.31 -87.02 135.62 -86 138 C-85.855625 139.464375 -85.71125 140.92875 -85.5625 142.4375 C-85.706875 143.943125 -85.85125 145.44875 -86 147 C-86.556875 148.423125 -87.11375 149.84625 -87.6875 151.3125 C-88.450625 152.529375 -89.21375 153.74625 -90 155 C-90.4021875 155.391875 -90.4021875 155.391875 -92.4375 157.375 C-92.8603125 157.643125 -92.8603125 157.643125 -95 159 C-95.37125 159.20625 -95.37125 159.20625 -97.25 160.25 C-98.1575 160.4975 -99.065 160.745 -100 161 C-101.423125 161.12375 -102.84625 161.2475 -104.3125 161.375 C-105.859375 161.25125 -107.40625 161.1275 -109 161 C-110.381875 160.525625 -111.76375 160.05125 -113.1875 159.5625 C-114.445625 158.716875 -115.70375 157.87125 -117 157 C-118.155 155.618125 -119.31 154.23625 -120.5 152.8125 C-121.325 151.224375 -122.15 149.63625 -123 148 C-123.12375 146.329375 -123.2475 144.65875 -123.375 142.9375 C-123.313125 142.2878125 -123.313125 142.2878125 -123 139 C-122.34 139 -121.68 139 -121 139 C-120.67 137.02 -120.34 135.04 -120 133 C-120.99 132.67 -121.98 132.34 -123 132 C-122.6390625 131.79375 -122.6390625 131.79375 -120.8125 130.75 C-119.884375 130.1725 -118.95625 129.595 -118 129 C-117.13375 128.29875 -116.2675 127.5975 -115.375 126.875 C-114.59125 126.25625 -113.8075 125.6375 -113 125 C-112.505 124.835 -112.505 124.835 -110 124 C-109.113125 124.144375 -108.22625 124.28875 -107.3125 124.4375 C-106.549375 124.623125 -105.78625 124.80875 -105 125 C-105 122.69 -105 120.38 -105 118 C-104.67 118 -104.34 118 -104 118 C-104 119.98 -104 121.96 -104 124 C-102.906875 124.144375 -101.81375 124.28875 -100.6875 124.4375 C-100.0790625 124.5303125 -100.0790625 124.5303125 -97 125 C-96.505 125.165 -96.505 125.165 -94 126 C-93.34 124.68 -92.68 123.36 -92 122 C-90.659375 120.494375 -89.31875 118.98875 -87.9375 117.4375 C-86.308125 115.643125 -84.67875 113.84875 -83 112 C-81.515 110.185 -80.03 108.37 -78.5 106.5 C-77.015 104.685 -75.53 102.87 -74 101 C-72.515 99.35 -71.03 97.7 -69.5 96 C-68.015 94.35 -66.53 92.7 -65 91 C-63.535625 89.205625 -62.07125 87.41125 -60.5625 85.5625 C-59.056875 83.726875 -57.55125 81.89125 -56 80 C-54.35 78.185 -52.7 76.37 -51 74.5 C-49.35 72.685 -47.7 70.87 -46 69 C-44.515 67.185 -43.03 65.37 -41.5 63.5 C-40.7575 62.5925 -40.7575 62.5925 -37 58 C-35.35 56.185 -33.7 54.37 -32 52.5 C-30.35 50.685 -28.7 48.87 -27 47 C-25.411875 45.081875 -23.82375 43.16375 -22.1875 41.1875 C-20.805625 39.475625 -19.42375 37.76375 -18 36 C-16.96875 34.88625 -15.9375 33.7725 -14.875 32.625 C-14.25625 31.75875 -13.6375 30.8925 -13 30 C-13.061875 29.05125 -13.12375 28.1025 -13.1875 27.125 C-13.455625 26.42375 -13.72375 25.7225 -14 25 C-14.495 24.835 -14.495 24.835 -17 24 C-15.68 24 -14.36 24 -13 24 C-13.350625 23.154375 -13.70125 22.30875 -14.0625 21.4375 C-14.371875 20.303125 -14.68125 19.16875 -15 18 C-14.9690625 17.4121875 -14.9690625 17.4121875 -14.8125 14.4375 C-14.544375 13.303125 -14.27625 12.16875 -14 11 C-13.5875 10.071875 -13.175 9.14375 -12.75 8.1875 C-12.46125 7.8265625 -12.46125 7.8265625 -11 6 C-10.5565625 5.7834375 -10.5565625 5.7834375 -8.3125 4.6875 C-7.549375 4.460625 -6.78625 4.23375 -6 4 C-6 3.34 -6 2.68 -6 2 C-5.154375 1.67 -4.30875 1.34 -3.4375 1 C-2.303125 0.67 -1.16875 0.34 0 0 Z " fill="#FB881C" transform="translate(352,228)"/>
<path d="M0 0 C0.70125 0.12375 1.4025 0.2475 2.125 0.375 C2.74375 0.58125 3.3625 0.7875 4 1 C4.33 2.32 4.66 3.64 5 5 C3.185 8.2175 1.37 11.435 -0.5 14.75 C-2.975 18.7925 -5.45 22.835 -8 27 C-10.413125 30.8775 -12.82625 34.755 -15.3125 38.75 C-17.849375 42.7925 -20.38625 46.835 -23 51 C-24.3509375 53.1965625 -24.3509375 53.1965625 -31.1875 64.3125 C-33.765625 68.499375 -36.34375 72.68625 -39 77 C-41.02125 80.196875 -43.0425 83.39375 -45.125 86.6875 C-47.06375 89.760625 -49.0025 92.83375 -51 96 C-53.248125 99.691875 -55.49625 103.38375 -57.8125 107.1875 C-60.184375 111.085625 -62.55625 114.98375 -65 119 C-67.43375 122.898125 -69.8675 126.79625 -72.375 130.8125 C-73.633125 132.8234375 -73.633125 132.8234375 -80 143 C-82.64 147.29 -85.28 151.58 -88 156 C-90.64 160.29 -93.28 164.58 -96 169 C-98.578125 173.125 -101.15625 177.25 -103.8125 181.5 C-106.184375 185.295 -108.55625 189.09 -111 193 C-112.93875 196.17625 -114.8775 199.3525 -116.875 202.625 C-118.56625 205.38875 -120.2575 208.1525 -122 211 C-123.670625 213.64 -125.34125 216.28 -127.0625 219 C-128.361875 220.98 -129.66125 222.96 -131 225 C-131.33 225.33 -131.33 225.33 -133 227 C-133.350625 226.938125 -133.350625 226.938125 -135.125 226.625 C-135.74375 226.41875 -136.3625 226.2125 -137 226 C-137.33 224.68 -137.66 223.36 -138 222 C-136.123125 218.679375 -134.24625 215.35875 -132.3125 211.9375 C-129.899375 207.998125 -127.48625 204.05875 -125 200 C-123.081875 196.9475 -121.16375 193.895 -119.1875 190.75 C-117.145625 187.5325 -115.10375 184.315 -113 181 C-110.380625 176.75125 -107.76125 172.5025 -105.0625 168.125 C-102.401875 163.79375 -99.74125 159.4625 -97 155 C-94.793125 151.431875 -92.58625 147.86375 -90.3125 144.1875 C-88.229375 140.825625 -86.14625 137.46375 -84 134 C-81.89625 130.596875 -79.7925 127.19375 -77.625 123.6875 C-75.43875 120.160625 -73.2525 116.63375 -71 113 C-68.586875 109.143125 -66.17375 105.28625 -63.6875 101.3125 C-61.150625 97.249375 -58.61375 93.18625 -56 89 C-54.659375 86.8240625 -54.659375 86.8240625 -47.875 75.8125 C-45.27625 71.584375 -42.6775 67.35625 -40 63 C-37.793125 59.431875 -35.58625 55.86375 -33.3125 52.1875 C-31.229375 48.825625 -29.14625 45.46375 -27 42 C-24.834375 38.49375 -22.66875 34.9875 -20.4375 31.375 C-18.313125 27.95125 -16.18875 24.5275 -14 21 C-11.793125 17.473125 -9.58625 13.94625 -7.3125 10.3125 C-5.559375 7.569375 -3.80625 4.82625 -2 2 C-1.34 1.34 -0.68 0.68 0 0 Z " fill="#37373A" transform="translate(192,52)"/>
<path d="M0 0 C1.32 0.33 2.64 0.66 4 1 C5.98 3.825625 7.96 6.65125 10 9.5625 C11.155 11.2846875 11.155 11.2846875 17 20 C18.98 22.64 20.96 25.28 23 28 C24.98 30.64 26.96 33.28 29 36 C31.18625 39.196875 33.3725 42.39375 35.625 45.6875 C36.676875 47.2240625 36.676875 47.2240625 42 55 C43.670625 57.18625 45.34125 59.3725 47.0625 61.625 C48.691875 63.72875 50.32125 65.8325 52 68 C53.918125 70.701875 55.83625 73.40375 57.8125 76.1875 C59.854375 79.095625 61.89625 82.00375 64 85 C66.18625 88.031875 68.3725 91.06375 70.625 94.1875 C72.72875 97.095625 74.8325 100.00375 77 103 C78.65 105.31 80.3 107.62 82 110 C83.65 112.31 85.3 114.62 87 117 C89.083125 119.8875 91.16625 122.775 93.3125 125.75 C95.519375 128.8025 97.72625 131.855 100 135 C102.165625 137.990625 104.33125 140.98125 106.5625 144.0625 C107.6246875 145.5371875 107.6246875 145.5371875 113 153 C115.145 156.031875 117.29 159.06375 119.5 162.1875 C120.4075 163.4765625 120.4075 163.4765625 125 170 C126.65 172.31 128.3 174.62 130 177 C130.33 178.32 130.66 179.64 131 181 C129.35 181.99 127.7 182.98 126 184 C124.948125 182.72125 123.89625 181.4425 122.8125 180.125 C121.224375 178.10375 119.63625 176.0825 118 174 C115.9375 171.174375 113.875 168.34875 111.75 165.4375 C109.5225 162.323125 107.295 159.20875 105 156 C104.01 154.5975 104.01 154.5975 99 147.5 C98.01 146.0975 98.01 146.0975 93 139 C90.875625 136.050625 88.75125 133.10125 86.5625 130.0625 C84.396875 127.071875 82.23125 124.08125 80 121 C77.855 118.03 75.71 115.06 73.5 112 C71.355 109.03 69.21 106.06 67 103 C65.8965625 101.47375 65.8965625 101.47375 60.3125 93.75 C58.229375 90.8625 56.14625 87.975 54 85 C53.175 83.845 53.175 83.845 49 78 C48.175 76.845 48.175 76.845 44 71 C41.916875 68.1125 39.83375 65.225 37.6875 62.25 C35.480625 59.1975 33.27375 56.145 31 53 C28.834375 50.009375 26.66875 47.01875 24.4375 43.9375 C23.3753125 42.4628125 23.3753125 42.4628125 18 35 C15.9375 32.091875 13.875 29.18375 11.75 26.1875 C9.8525 23.485625 7.955 20.78375 6 18 C4.246875 15.586875 2.49375 13.17375 0.6875 10.6875 C0.0790625 9.7490625 0.0790625 9.7490625 -3 5 C-2.67 3.68 -2.34 2.36 -2 1 C-1.34 0.67 -0.68 0.34 0 0 Z " fill="#38383B" transform="translate(216,51)"/>
<path d="M0 0 C0.99 0.165 0.99 0.165 6 1 C12.373125 3.43375 18.74625 5.8675 25.3125 8.375 C33.459375 11.55125 41.60625 14.7275 50 18 C57.8375 21.031875 65.675 24.06375 73.75 27.1875 C82.0825 30.425625 90.415 33.66375 99 37 C109.044375 40.939375 119.08875 44.87875 129.4375 48.9375 C133.6553125 50.5978125 133.6553125 50.5978125 155 59 C158.3 60.32 161.6 61.64 165 63 C166.32 63.66 167.64 64.32 169 65 C168.67 66.98 168.34 68.96 168 71 C165.69 70.67 163.38 70.34 161 70 C157.3596875 68.6078125 157.3596875 68.6078125 138.9375 61.5625 C130.048125 58.076875 121.15875 54.59125 112 51 C104.41 48.03 96.82 45.06 89 42 C81.41 39.03 73.82 36.06 66 33 C57.275625 29.6175 48.55125 26.235 39.5625 22.75 C32.116875 19.8625 24.67125 16.975 17 14 C14.525 13.01 14.525 13.01 2 8 C1.01 7.34 0.02 6.68 -1 6 C-0.67 4.02 -0.34 2.04 0 0 Z " fill="#3B3B3F" transform="translate(63,296)"/>
<path d="M0 0 C1.299375 -0.04125 2.59875 -0.0825 3.9375 -0.125 C5.278125 -0.08375 6.61875 -0.0425 8 0 C8.78375 0.103125 9.5675 0.20625 10.375 0.3125 C10.91125 0.539375 11.4475 0.76625 12 1 C12.66 1.99 13.32 2.98 14 4 C15.32 4 16.64 4 18 4 C18.598125 5.11375 19.19625 6.2275 19.8125 7.375 C20.534375 8.57125 21.25625 9.7675 22 11 C22.99 11.66 23.98 12.32 25 13 C23.68 13 22.36 13 21 13 C21 14.98 21 16.96 21 19 C22.32 19.33 23.64 19.66 25 20 C24.34 20 23.68 20 23 20 C23 20.66 23 21.32 23 22 C22.34 22 21.68 22 21 22 C20.67 23.98 20.34 25.96 20 28 C20.66 28.33 21.32 28.66 22 29 C20.7625 29.94875 19.525 30.8975 18.25 31.875 C16.8475 32.90625 15.445 33.9375 14 35 C12.68 35.66 11.36 36.32 10 37 C9.21625 37.061875 9.21625 37.061875 5.25 37.375 C3.5175 37.25125 1.785 37.1275 0 37 C-1.423125 36.484375 -2.84625 35.96875 -4.3125 35.4375 C-5.529375 34.633125 -6.74625 33.82875 -8 33 C-8.969375 31.824375 -9.93875 30.64875 -10.9375 29.4375 C-11.618125 28.303125 -12.29875 27.16875 -13 26 C-13.33 25.01 -13.66 24.02 -14 23 C-14.103125 21.618125 -14.20625 20.23625 -14.3125 18.8125 C-14.209375 17.224375 -14.10625 15.63625 -14 14 C-13.484375 12.5975 -12.96875 11.195 -12.4375 9.75 C-11.633125 8.5125 -10.82875 7.275 -10 6 C-8.824375 5.030625 -7.64875 4.06125 -6.4375 3.0625 C-5.303125 2.381875 -4.16875 1.70125 -3 1 C-2.01 0.67 -1.02 0.34 0 0 Z " fill="#F68012" transform="translate(42,274)"/>
<path d="M0 0 C1.5675 -0.0825 3.135 -0.165 4.75 -0.25 C6.4825 -0.1675 8.215 -0.085 10 0 C10.6290625 0.185625 10.6290625 0.185625 13.8125 1.125 C14.864375 1.74375 15.91625 2.3625 17 3 C17.928125 3.969375 18.85625 4.93875 19.8125 5.9375 C20.534375 6.948125 21.25625 7.95875 22 9 C22.66 10.32 23.32 11.64 24 13 C24.144375 14.5675 24.28875 16.135 24.4375 17.75 C24.293125 19.4825 24.14875 21.215 24 23 C23.2575 24.485 22.515 25.97 21.75 27.5 C20.8425 28.655 19.935 29.81 19 31 C18.34 31.33 18.34 31.33 15 33 C14.34 33.99 13.68 34.98 13 36 C10.36 35.67 7.72 35.34 5 35 C5 36.65 5 38.3 5 40 C4.67 39.01 4.34 38.02 4 37 C3.05125 36.896875 2.1025 36.79375 1.125 36.6875 C0.09375 36.460625 -0.9375 36.23375 -2 36 C-2.66 35.01 -3.32 34.02 -4 33 C-5.32 33 -6.64 33 -8 33 C-8.3196875 32.46375 -8.3196875 32.46375 -9.9375 29.75 C-10.2778125 29.13125 -10.2778125 29.13125 -12 26 C-12.2475 25.360625 -12.495 24.72125 -12.75 24.0625 C-12.8325 23.381875 -12.915 22.70125 -13 22 C-13.103125 20.7625 -13.20625 19.525 -13.3125 18.25 C-13.209375 16.8475 -13.10625 15.445 -13 14 C-12.46375 12.618125 -11.9275 11.23625 -11.375 9.8125 C-10.59125 8.554375 -9.8075 7.29625 -9 6 C-7.989375 5.030625 -6.97875 4.06125 -5.9375 3.0625 C-4.968125 2.381875 -3.99875 1.70125 -3 1 C-2.01 0.67 -1.02 0.34 0 0 Z " fill="#FC7C05" transform="translate(199,20)"/>
<path d="M0 0 C0.5671875 -0.0515625 0.5671875 -0.0515625 3.4375 -0.3125 C4.613125 -0.209375 5.78875 -0.10625 7 0 C8.175625 0.350625 9.35125 0.70125 10.5625 1.0625 C11.696875 1.701875 12.83125 2.34125 14 3 C15.093125 4.093125 16.18625 5.18625 17.3125 6.3125 C18.199375 7.529375 19.08625 8.74625 20 10 C20.474375 10.94875 20.94875 11.8975 21.4375 12.875 C21.623125 13.90625 21.80875 14.9375 22 16 C21.95875 17.485 21.9175 18.97 21.875 20.5 C21.730625 21.2425 21.730625 21.2425 21 25 C20.401875 26.093125 19.80375 27.18625 19.1875 28.3125 C18.465625 29.199375 17.74375 30.08625 17 31 C16.6803125 31.37125 16.6803125 31.37125 15.0625 33.25 C14.381875 33.8275 13.70125 34.405 13 35 C12.649375 35.20625 12.649375 35.20625 10.875 36.25 C9.92625 36.4975 8.9775 36.745 8 37 C7.175 37.04125 7.175 37.04125 3 37.25 C2.175 37.20875 2.175 37.20875 -2 37 C-3.010625 36.731875 -4.02125 36.46375 -5.0625 36.1875 C-5.3821875 35.9915625 -5.3821875 35.9915625 -7 35 C-7.165 34.505 -7.165 34.505 -8 32 C-8.825 31.525625 -9.65 31.05125 -10.5 30.5625 C-11.325 30.046875 -12.15 29.53125 -13 29 C-13.20625 28.29875 -13.4125 27.5975 -13.625 26.875 C-13.74875 26.25625 -13.8725 25.6375 -14 25 C-14.99 24.67 -15.98 24.34 -17 24 C-15.68 24 -14.36 24 -13 24 C-13.350625 23.154375 -13.70125 22.30875 -14.0625 21.4375 C-14.371875 20.303125 -14.68125 19.16875 -15 18 C-14.938125 16.824375 -14.87625 15.64875 -14.8125 14.4375 C-14.544375 13.303125 -14.27625 12.16875 -14 11 C-13.5875 10.071875 -13.175 9.14375 -12.75 8.1875 C-12.1725 7.465625 -11.595 6.74375 -11 6 C-10.113125 5.566875 -9.22625 5.13375 -8.3125 4.6875 C-7.549375 4.460625 -6.78625 4.23375 -6 4 C-6 3.34 -6 2.68 -6 2 C-5.154375 1.67 -4.30875 1.34 -3.4375 1 C-2.303125 0.67 -1.16875 0.34 0 0 Z " fill="#FA7B04" transform="translate(352,228)"/>
<path d="M0 0 C1.65 0.33 3.3 0.66 5 1 C5.165 1.66 5.165 1.66 6 5 C5.360625 5.845625 5.360625 5.845625 2.125 10.125 C0.43375 12.06375 -1.2575 14.0025 -3 16 C-3.7425 16.825 -3.7425 16.825 -7.5 21 C-8.2425 21.825 -8.2425 21.825 -12 26 C-13.485 27.815 -14.97 29.63 -16.5 31.5 C-17.985 33.315 -19.47 35.13 -21 37 C-22.485 38.65 -23.97 40.3 -25.5 42 C-26.985 43.65 -28.47 45.3 -30 47 C-31.464375 48.794375 -32.92875 50.58875 -34.4375 52.4375 C-35.943125 54.273125 -37.44875 56.10875 -39 58 C-40.65 59.815 -42.3 61.63 -44 63.5 C-44.825 64.4075 -44.825 64.4075 -49 69 C-50.505625 70.835625 -52.01125 72.67125 -53.5625 74.5625 C-55.026875 76.356875 -56.49125 78.15125 -58 80 C-59.485 81.65 -60.97 83.3 -62.5 85 C-63.985 86.65 -65.47 88.3 -67 90 C-68.670625 92.02125 -70.34125 94.0425 -72.0625 96.125 C-73.361875 97.73375 -74.66125 99.3425 -76 101 C-77.32 100.67 -78.64 100.34 -80 100 C-80.66 98.68 -81.32 97.36 -82 96 C-80.700625 94.39125 -79.40125 92.7825 -78.0625 91.125 C-76.391875 89.10375 -74.72125 87.0825 -73 85 C-71.515 83.35 -70.03 81.7 -68.5 80 C-67.015 78.35 -65.53 76.7 -64 75 C-62.535625 73.205625 -61.07125 71.41125 -59.5625 69.5625 C-58.056875 67.726875 -56.55125 65.89125 -55 64 C-53.35 62.185 -51.7 60.37 -50 58.5 C-48.35 56.685 -46.7 54.87 -45 53 C-44.2575 52.0925 -44.2575 52.0925 -40.5 47.5 C-39.7575 46.5925 -39.7575 46.5925 -36 42 C-34.35 40.185 -32.7 38.37 -31 36.5 C-29.35 34.685 -27.7 32.87 -26 31 C-24.494375 29.164375 -22.98875 27.32875 -21.4375 25.4375 C-19.973125 23.643125 -18.50875 21.84875 -17 20 C-15.494375 18.329375 -13.98875 16.65875 -12.4375 14.9375 C-10.973125 13.308125 -9.50875 11.67875 -8 10 C-6.494375 8.14375 -4.98875 6.2875 -3.4375 4.375 C-2.303125 2.93125 -1.16875 1.4875 0 0 Z " fill="#373639" transform="translate(339,258)"/>
<path d="M0 0 C1.5675 -0.0825 3.135 -0.165 4.75 -0.25 C6.4825 -0.1675 8.215 -0.085 10 0 C10.6290625 0.185625 10.6290625 0.185625 13.8125 1.125 C14.864375 1.74375 15.91625 2.3625 17 3 C17.928125 3.969375 18.85625 4.93875 19.8125 5.9375 C20.534375 6.948125 21.25625 7.95875 22 9 C22.66 10.32 23.32 11.64 24 13 C24.144375 14.5675 24.28875 16.135 24.4375 17.75 C24.293125 19.4825 24.14875 21.215 24 23 C23.2575 24.485 22.515 25.97 21.75 27.5 C20.8425 28.655 19.935 29.81 19 31 C18.34 31.33 18.34 31.33 15 33 C14.34 33.99 13.68 34.98 13 36 C10.36 35.67 7.72 35.34 5 35 C5 36.65 5 38.3 5 40 C4.67 39.01 4.34 38.02 4 37 C3.05125 36.896875 2.1025 36.79375 1.125 36.6875 C0.09375 36.460625 -0.9375 36.23375 -2 36 C-2.66 35.01 -3.32 34.02 -4 33 C-5.32 33 -6.64 33 -8 33 C-8.3196875 32.46375 -8.3196875 32.46375 -9.9375 29.75 C-10.2778125 29.13125 -10.2778125 29.13125 -12 26 C-12.2475 25.360625 -12.495 24.72125 -12.75 24.0625 C-12.8325 23.381875 -12.915 22.70125 -13 22 C-13.103125 20.7625 -13.20625 19.525 -13.3125 18.25 C-13.209375 16.8475 -13.10625 15.445 -13 14 C-12.46375 12.618125 -11.9275 11.23625 -11.375 9.8125 C-10.59125 8.554375 -9.8075 7.29625 -9 6 C-7.989375 5.030625 -6.97875 4.06125 -5.9375 3.0625 C-4.968125 2.381875 -3.99875 1.70125 -3 1 C-2.01 0.67 -1.02 0.34 0 0 Z M0 4 C-0.969375 4.763125 -1.93875 5.52625 -2.9375 6.3125 C-3.2778125 6.7559375 -3.2778125 6.7559375 -5 9 C-5.33 9.99 -5.66 10.98 -6 12 C-7.32 12 -8.64 12 -10 12 C-10.103125 13.65 -10.20625 15.3 -10.3125 17 C-10.209375 18.98 -10.10625 20.96 -10 23 C-9.2575 24.485 -8.515 25.97 -7.75 27.5 C-7.29625 28.0775 -7.29625 28.0775 -5 31 C-3.68 31.99 -2.36 32.98 -1 34 C0.959375 34.12375 2.91875 34.2475 4.9375 34.375 C5.9378125 34.313125 5.9378125 34.313125 11 34 C12.65 33.01 14.3 32.02 16 31 C16 29.68 16 28.36 16 27 C16.99 26.67 17.98 26.34 19 26 C19.391875 25.484375 19.78375 24.96875 20.1875 24.4375 C20.455625 23.633125 20.72375 22.82875 21 22 C21.04125 20.5975 21.0825 19.195 21.125 17.75 C21.08375 16.5125 21.0425 15.275 21 14 C20.34 14 19.68 14 19 14 C18.896875 13.360625 18.79375 12.72125 18.6875 12.0625 C18.460625 11.381875 18.23375 10.70125 18 10 C17.01 9.67 16.02 9.34 15 9 C14.67 8.01 14.34 7.02 14 6 C13.154375 5.608125 12.30875 5.21625 11.4375 4.8125 C10.303125 4.544375 9.16875 4.27625 8 4 C6.659375 3.855625 5.31875 3.71125 3.9375 3.5625 C2.638125 3.706875 1.33875 3.85125 0 4 Z " fill="#F3C38D" transform="translate(199,20)"/>
<path d="M0 0 C0.5671875 -0.0515625 0.5671875 -0.0515625 3.4375 -0.3125 C4.613125 -0.209375 5.78875 -0.10625 7 0 C8.175625 0.350625 9.35125 0.70125 10.5625 1.0625 C11.696875 1.701875 12.83125 2.34125 14 3 C15.093125 4.093125 16.18625 5.18625 17.3125 6.3125 C18.199375 7.529375 19.08625 8.74625 20 10 C20.474375 10.94875 20.94875 11.8975 21.4375 12.875 C21.623125 13.90625 21.80875 14.9375 22 16 C21.95875 17.485 21.9175 18.97 21.875 20.5 C21.730625 21.2425 21.730625 21.2425 21 25 C20.401875 26.093125 19.80375 27.18625 19.1875 28.3125 C18.465625 29.199375 17.74375 30.08625 17 31 C16.6803125 31.37125 16.6803125 31.37125 15.0625 33.25 C14.381875 33.8275 13.70125 34.405 13 35 C12.649375 35.20625 12.649375 35.20625 10.875 36.25 C9.92625 36.4975 8.9775 36.745 8 37 C7.175 37.04125 7.175 37.04125 3 37.25 C2.175 37.20875 2.175 37.20875 -2 37 C-3.03125 36.67 -4.0625 36.34 -5.125 36 C-5.74375 35.67 -6.3625 35.34 -7 35 C-6.67 34.34 -6.34 33.68 -6 33 C-0.39 33 5.22 33 11 33 C11.33 31.68 11.66 30.36 12 29 C12.639375 28.690625 13.27875 28.38125 13.9375 28.0625 C14.618125 27.711875 15.29875 27.36125 16 27 C16.20625 26.6390625 16.20625 26.6390625 17.25 24.8125 C17.4975 23.884375 17.745 22.95625 18 22 C18.144375 20.88625 18.28875 19.7725 18.4375 18.625 C18.293125 17.42875 18.14875 16.2325 18 15 C17.649375 14.38125 17.649375 14.38125 15.875 11.25 C14.92625 10.1775 13.9775 9.105 13 8 C12.071875 7.360625 11.14375 6.72125 10.1875 6.0625 C9.135625 5.711875 8.08375 5.36125 7 5 C5.68 4.855625 4.36 4.71125 3 4.5625 C1.68 4.706875 0.36 4.85125 -1 5 C-1.5465625 5.268125 -1.5465625 5.268125 -4.3125 6.625 C-5.199375 7.40875 -6.08625 8.1925 -7 9 C-7.61875 10.0725 -8.2375 11.145 -8.875 12.25 C-9.24625 13.1575 -9.6175 14.065 -10 15 C-10.66 15 -11.32 15 -12 15 C-11.855625 16.381875 -11.71125 17.76375 -11.5625 19.1875 C-11.376875 20.775625 -11.19125 22.36375 -11 24 C-10.9071875 24.5053125 -10.9071875 24.5053125 -10.4375 27.0625 C-10.293125 27.701875 -10.14875 28.34125 -10 29 C-10.99 29 -11.98 29 -13 29 C-13.0515625 28.6803125 -13.0515625 28.6803125 -13.3125 27.0625 C-13.539375 26.381875 -13.76625 25.70125 -14 25 C-14.99 24.67 -15.98 24.34 -17 24 C-15.68 24 -14.36 24 -13 24 C-13.350625 23.154375 -13.70125 22.30875 -14.0625 21.4375 C-14.371875 20.303125 -14.68125 19.16875 -15 18 C-14.938125 16.824375 -14.87625 15.64875 -14.8125 14.4375 C-14.544375 13.303125 -14.27625 12.16875 -14 11 C-13.5875 10.071875 -13.175 9.14375 -12.75 8.1875 C-12.1725 7.465625 -11.595 6.74375 -11 6 C-10.113125 5.566875 -9.22625 5.13375 -8.3125 4.6875 C-7.549375 4.460625 -6.78625 4.23375 -6 4 C-6 3.34 -6 2.68 -6 2 C-5.154375 1.67 -4.30875 1.34 -3.4375 1 C-2.303125 0.67 -1.16875 0.34 0 0 Z " fill="#EFBE86" transform="translate(352,228)"/>
<path d="M0 0 C0.33 0 0.66 0 1 0 C1 2.31 1 4.62 1 7 C1.66 7 2.32 7 3 7 C3.33 9.165625 3.66 11.33125 4 13.5625 C4.33 16.346875 4.66 19.13125 5 22 C5.04125 24.784375 5.0825 27.56875 5.125 30.4375 C5.08375 32.603125 5.0425 34.76875 5 37 C4.175 37.165 4.175 37.165 0 38 C-0.309375 37.34 -0.61875 36.68 -0.9375 36 C-1.288125 35.01 -1.63875 34.02 -2 33 C-2.20625 31.865625 -2.4125 30.73125 -2.625 29.5625 C-2.74875 28.056875 -2.8725 26.55125 -3 25 C-3.020625 22.525 -3.04125 20.05 -3.0625 17.5 C-3.041875 15.355 -3.02125 13.21 -3 11 C-2.34 10.67 -1.68 10.34 -1 10 C-0.79375 8.329375 -0.5875 6.65875 -0.375 4.9375 C-0.25125 3.308125 -0.1275 1.67875 0 0 Z " fill="#363639" transform="translate(242,316)"/>
<path d="M0 0 C1.299375 -0.04125 2.59875 -0.0825 3.9375 -0.125 C5.278125 -0.08375 6.61875 -0.0425 8 0 C8.78375 0.103125 9.5675 0.20625 10.375 0.3125 C10.91125 0.539375 11.4475 0.76625 12 1 C12.66 1.99 13.32 2.98 14 4 C15.32 4 16.64 4 18 4 C18.598125 5.11375 19.19625 6.2275 19.8125 7.375 C20.534375 8.57125 21.25625 9.7675 22 11 C22.99 11.66 23.98 12.32 25 13 C23.68 13 22.36 13 21 13 C21 14.98 21 16.96 21 19 C22.32 19.33 23.64 19.66 25 20 C24.34 20 23.68 20 23 20 C23 20.66 23 21.32 23 22 C22.01 21.67 21.02 21.34 20 21 C19.9175 19.5975 19.835 18.195 19.75 16.75 C19.5025 15.1825 19.255 13.615 19 12 C18.319375 11.195625 17.63875 10.39125 16.9375 9.5625 C16.298125 9.046875 15.65875 8.53125 15 8 C15 7.34 15 6.68 15 6 C14.6184375 5.9278125 14.6184375 5.9278125 12.6875 5.5625 C11.800625 5.376875 10.91375 5.19125 10 5 C9.01 4.67 8.02 4.34 7 4 C5.948125 3.9175 4.89625 3.835 3.8125 3.75 C3.1834375 3.79125 3.1834375 3.79125 0 4 C-0.70125 4.1959375 -0.70125 4.1959375 -4.25 5.1875 C-5.4875 5.785625 -6.725 6.38375 -8 7 C-8.495 7.825 -8.495 7.825 -11 12 C-11.0825 14.165625 -11.165 16.33125 -11.25 18.5625 C-11.1675 20.686875 -11.085 22.81125 -11 25 C-10.67 26.32 -10.34 27.64 -10 29 C-10.474375 28.566875 -10.94875 28.13375 -11.4375 27.6875 C-11.953125 27.130625 -12.46875 26.57375 -13 26 C-13.33 25.01 -13.66 24.02 -14 23 C-14.103125 21.618125 -14.20625 20.23625 -14.3125 18.8125 C-14.209375 17.224375 -14.10625 15.63625 -14 14 C-13.484375 12.5975 -12.96875 11.195 -12.4375 9.75 C-11.633125 8.5125 -10.82875 7.275 -10 6 C-8.824375 5.030625 -7.64875 4.06125 -6.4375 3.0625 C-5.303125 2.381875 -4.16875 1.70125 -3 1 C-2.01 0.67 -1.02 0.34 0 0 Z " fill="#EEC392" transform="translate(42,274)"/>
<path d="M0 0 C0.66 0.66 1.32 1.32 2 2 C2.0515625 2.9384375 2.0515625 2.9384375 2.3125 7.6875 C2.209375 9.770625 2.10625 11.85375 2 14 C1.79375 14.680625 1.79375 14.680625 0.75 18.125 C0.1725 19.07375 -0.405 20.0225 -1 21 C-1.680625 21.4125 -2.36125 21.825 -3.0625 22.25 C-3.701875 22.4975 -4.34125 22.745 -5 23 C-5.66 23.99 -6.32 24.98 -7 26 C-9.64 25.67 -12.28 25.34 -15 25 C-15 26.65 -15 28.3 -15 30 C-15.33 29.01 -15.66 28.02 -16 27 C-16.94875 26.896875 -17.8975 26.79375 -18.875 26.6875 C-19.90625 26.460625 -20.9375 26.23375 -22 26 C-22.66 25.01 -23.32 24.02 -24 23 C-24.99 22.67 -25.98 22.34 -27 22 C-27.3609375 21.4534375 -27.3609375 21.4534375 -29.1875 18.6875 C-29.785625 17.140625 -30.38375 15.59375 -31 14 C-31.0825 11.855 -31.165 9.71 -31.25 7.5 C-31.1675 5.685 -31.085 3.87 -31 2 C-30.67 2 -30.34 2 -30 2 C-29.9175 3.670625 -29.835 5.34125 -29.75 7.0625 C-29.5025 9.021875 -29.255 10.98125 -29 13 C-28.401875 14.32 -27.80375 15.64 -27.1875 17 C-26.465625 17.99 -25.74375 18.98 -25 20 C-23.68 20.99 -22.36 21.98 -21 23 C-19.040625 23.103125 -17.08125 23.20625 -15.0625 23.3125 C-13.061875 23.209375 -11.06125 23.10625 -9 23 C-7.35 22.34 -5.7 21.68 -4 21 C-4 19.68 -4 18.36 -4 17 C-3.525625 16.46375 -3.05125 15.9275 -2.5625 15.375 C-2.046875 14.92125 -1.53125 14.4675 -1 14 C-0.67 13.34 -0.34 12.68 0 12 C0.020625 9.97875 0.04125 7.9575 0.0625 5.875 C0.041875 3.93625 0.02125 1.9975 0 0 Z " fill="#D48236" transform="translate(219,30)"/>
<path d="M0 0 C1.85625 -0.020625 3.7125 -0.04125 5.625 -0.0625 C6.511875 -0.0521875 6.511875 -0.0521875 11 0 C11 0.33 11 0.66 11 1 C9.453125 1.2475 7.90625 1.495 6.3125 1.75 C4.559375 2.1625 2.80625 2.575 1 3 C0.01 3.598125 -0.98 4.19625 -2 4.8125 C-2.66 5.534375 -3.32 6.25625 -4 7 C-4.2165625 7.45375 -4.2165625 7.45375 -5.3125 9.75 C-5.539375 10.4925 -5.76625 11.235 -6 12 C-6.66 12 -7.32 12 -8 12 C-7.855625 13.381875 -7.71125 14.76375 -7.5625 16.1875 C-7.376875 17.775625 -7.19125 19.36375 -7 21 C-6.9071875 21.5053125 -6.9071875 21.5053125 -6.4375 24.0625 C-6.293125 24.701875 -6.14875 25.34125 -6 26 C-6.99 26 -7.98 26 -9 26 C-9.0515625 25.6803125 -9.0515625 25.6803125 -9.3125 24.0625 C-9.539375 23.381875 -9.76625 22.70125 -10 22 C-10.99 21.67 -11.98 21.34 -13 21 C-11.68 21 -10.36 21 -9 21 C-9.350625 20.154375 -9.70125 19.30875 -10.0625 18.4375 C-10.371875 17.303125 -10.68125 16.16875 -11 15 C-10.938125 13.824375 -10.87625 12.64875 -10.8125 11.4375 C-10.544375 10.303125 -10.27625 9.16875 -10 8 C-9.5875 7.071875 -9.175 6.14375 -8.75 5.1875 C-8.1725 4.465625 -7.595 3.74375 -7 3 C-6.154375 2.5875 -5.30875 2.175 -4.4375 1.75 C-3.633125 1.5025 -2.82875 1.255 -2 1 C-1.34 0.67 -0.68 0.34 0 0 Z " fill="#E99D53" transform="translate(348,231)"/>
<path d="M0 0 C0.33 0 0.66 0 1 0 C1 1.98 1 3.96 1 6 C2.11375 6.144375 3.2275 6.28875 4.375 6.4375 C5.57125 6.623125 6.7675 6.80875 8 7 C8.66 7.33 9.32 7.66 10 8 C10 8.66 10 9.32 10 10 C7.133125 10.061875 4.26625 10.12375 1.3125 10.1875 C-1.760625 10.455625 -4.83375 10.72375 -8 11 C-9.65 12.65 -11.3 14.3 -13 16 C-13.2165625 16.5465625 -13.2165625 16.5465625 -14.3125 19.3125 C-14.539375 20.199375 -14.76625 21.08625 -15 22 C-15.66 21.67 -16.32 21.34 -17 21 C-16.34 19.02 -15.68 17.04 -15 15 C-15.99 14.67 -16.98 14.34 -18 14 C-17.278125 13.5875 -16.55625 13.175 -15.8125 12.75 C-14.884375 12.1725 -13.95625 11.595 -13 11 C-12.13375 10.29875 -11.2675 9.5975 -10.375 8.875 C-9.59125 8.25625 -8.8075 7.6375 -8 7 C-7.01 6.67 -6.02 6.34 -5 6 C-4.113125 6.144375 -3.22625 6.28875 -2.3125 6.4375 C-1.549375 6.623125 -0.78625 6.80875 0 7 C0 4.69 0 2.38 0 0 Z " fill="#CA8240" transform="translate(247,346)"/>
<path d="M0 0 C0.763125 0.12375 1.52625 0.2475 2.3125 0.375 C3.199375 0.58125 4.08625 0.7875 5 1 C5.99 1.66 6.98 2.32 8 3 C8.66 4.65 9.32 6.3 10 8 C10.12375 9.93875 10.2475 11.8775 10.375 13.875 C10.25125 15.89625 10.1275 17.9175 10 20 C9.401875 21.381875 8.80375 22.76375 8.1875 24.1875 C7.465625 25.115625 6.74375 26.04375 6 27 C5.01 27.33 4.02 27.66 3 28 C3.103125 27.360625 3.20625 26.72125 3.3125 26.0625 C3.539375 25.381875 3.76625 24.70125 4 24 C4.99 23.67 5.98 23.34 7 23 C7.0825 21.39125 7.165 19.7825 7.25 18.125 C7.20875 17.114375 7.20875 17.114375 7 12 C6.401875 10.164375 5.80375 8.32875 5.1875 6.4375 C4.8265625 5.7053125 4.8265625 5.7053125 3 2 C2.01 1.34 1.02 0.68 0 0 Z " fill="#E18027" transform="translate(254,356)"/>
<path d="M0 0 C1.423125 -0.103125 2.84625 -0.20625 4.3125 -0.3125 C5.529375 -0.209375 6.74625 -0.10625 8 0 C8 0.33 8 0.66 8 1 C6.9275 1.226875 5.855 1.45375 4.75 1.6875 C3.5125 2.120625 2.275 2.55375 1 3 C0.6184375 3.4021875 0.6184375 3.4021875 -1.3125 5.4375 C-1.869375 6.283125 -2.42625 7.12875 -3 8 C-3.33 8.495 -3.33 8.495 -5 11 C-5.04125 13.206875 -5.0825 15.41375 -5.125 17.6875 C-5.08375 19.770625 -5.0425 21.85375 -5 24 C-5.99 23.01 -6.98 22.02 -8 21 C-8.226875 19.453125 -8.45375 17.90625 -8.6875 16.3125 C-8.790625 14.889375 -8.89375 13.46625 -9 12 C-8.34 12 -7.68 12 -7 12 C-6.773125 10.948125 -6.54625 9.89625 -6.3125 8.8125 C-5.879375 7.554375 -5.44625 6.29625 -5 5 C-4.29875 4.030625 -3.5975 3.06125 -2.875 2.0625 C-1.92625 1.381875 -0.9775 0.70125 0 0 Z " fill="#E87E1E" transform="translate(239,356)"/>
<path d="M0 0 C0.268125 0.556875 0.53625 1.11375 0.8125 1.6875 C0.874375 2.450625 0.93625 3.21375 1 4 C0.319375 4.86625 -0.36125 5.7325 -1.0625 6.625 C-2.031875 7.40875 -3.00125 8.1925 -4 9 C-5.98 9.66 -7.96 10.32 -10 11 C-12.26875 10.87625 -14.5375 10.7525 -16.875 10.625 C-18.89625 10.41875 -20.9175 10.2125 -23 10 C-22.67 9.34 -22.34 8.68 -22 8 C-16.39 8 -10.78 8 -5 8 C-4.67 6.68 -4.34 5.36 -4 4 C-3.319375 3.5875 -2.63875 3.175 -1.9375 2.75 C-1.298125 2.5025 -0.65875 2.255 0 2 C0 1.34 0 0.68 0 0 Z " fill="#E38F3E" transform="translate(368,253)"/>
<path d="M0 0 C2.02125 -0.103125 4.0425 -0.20625 6.125 -0.3125 C8.39375 -0.209375 10.6625 -0.10625 13 0 C14.258125 0.70125 15.51625 1.4025 16.8125 2.125 C17.534375 3.07375 18.25625 4.0225 19 5 C19.12375 6.093125 19.2475 7.18625 19.375 8.3125 C19.25125 9.199375 19.1275 10.08625 19 11 C18.236875 10.236875 17.47375 9.47375 16.6875 8.6875 C15.800625 7.800625 14.91375 6.91375 14 6 C13.01 5.01 12.02 4.02 11 3 C9.123125 2.608125 7.24625 2.21625 5.3125 1.8125 C4.4359375 1.6784375 4.4359375 1.6784375 0 1 C0 0.67 0 0.34 0 0 Z " fill="#E78122" transform="translate(200,23)"/>
<path d="M0 0 C0.825 0.165 0.825 0.165 5 1 C5 1.66 5 2.32 5 3 C5.680625 3.33 6.36125 3.66 7.0625 4 C7.5471875 4.165 7.5471875 4.165 10 5 C11.134375 5.061875 12.26875 5.12375 13.4375 5.1875 C14.613125 5.125625 15.78875 5.06375 17 5 C18.134375 4.835 19.26875 4.67 20.4375 4.5 C21.283125 4.335 22.12875 4.17 23 4 C21.68 4.99 20.36 5.98 19 7 C17.081875 7.165 15.16375 7.33 13.1875 7.5 C12.1665625 7.4175 12.1665625 7.4175 7 7 C5.5975 6.21625 4.195 5.4325 2.75 4.625 C1.8425 3.75875 0.935 2.8925 0 2 C0 1.34 0 0.68 0 0 Z " fill="#D88637" transform="translate(234,380)"/>
<path d="M0 0 C0.66 0 1.32 0 2 0 C1.67 0.99 1.34 1.98 1 3 C0.34 3 -0.32 3 -1 3 C-1.33 3.78375 -1.66 4.5675 -2 5.375 C-2.33 6.57125 -2.66 7.7675 -3 9 C-3.12375 10.670625 -3.2475 12.34125 -3.375 14.0625 C-3.25125 15.691875 -3.1275 17.32125 -3 19 C-2.319375 19.969375 -1.63875 20.93875 -0.9375 21.9375 C-0.298125 22.618125 0.34125 23.29875 1 24 C0.67 24.99 0.34 25.98 0 27 C-0.639375 26.21625 -1.27875 25.4325 -1.9375 24.625 C-2.2778125 24.191875 -2.2778125 24.191875 -4 22 C-4.33 21.34 -4.66 20.68 -5 20 C-5.12375 17.958125 -5.2475 15.91625 -5.375 13.8125 C-5.25125 11.564375 -5.1275 9.31625 -5 7 C-4.21625 5.576875 -3.4325 4.15375 -2.625 2.6875 C-1.75875 1.800625 -0.8925 0.91375 0 0 Z " fill="#D98335" transform="translate(35,279)"/>
<path d="M0 0 C0.66 0 1.32 0 2 0 C2 0.66 2 1.32 2 2 C1.34 2 0.68 2 0 2 C-0.268125 2.598125 -0.53625 3.19625 -0.8125 3.8125 C-1.204375 4.534375 -1.59625 5.25625 -2 6 C-2.495 6.45375 -2.99 6.9075 -3.5 7.375 C-3.995 7.91125 -4.49 8.4475 -5 9 C-5.391875 10.051875 -5.78375 11.10375 -6.1875 12.1875 C-6.455625 13.115625 -6.72375 14.04375 -7 15 C-7.66 14.67 -8.32 14.34 -9 14 C-8.34 12.02 -7.68 10.04 -7 8 C-7.99 7.67 -8.98 7.34 -10 7 C-9.6390625 6.79375 -9.6390625 6.79375 -7.8125 5.75 C-6.884375 5.1725 -5.95625 4.595 -5 4 C-4.113125 3.278125 -3.22625 2.55625 -2.3125 1.8125 C-1.549375 1.214375 -0.78625 0.61625 0 0 Z " fill="#E5B37B" transform="translate(239,353)"/>
<path d="M0 0 C0.33 0 0.66 0 1 0 C1.04125 0.9178125 1.04125 0.9178125 1.25 5.5625 C1.1675 7.686875 1.085 9.81125 1 12 C0.401875 13.381875 -0.19625 14.76375 -0.8125 16.1875 C-1.534375 17.115625 -2.25625 18.04375 -3 19 C-3.99 19.33 -4.98 19.66 -6 20 C-5.896875 19.360625 -5.79375 18.72125 -5.6875 18.0625 C-5.460625 17.381875 -5.23375 16.70125 -5 16 C-4.01 15.67 -3.02 15.34 -2 15 C-1.34 10.05 -0.68 5.1 0 0 Z " fill="#DC8533" transform="translate(263,364)"/>
<path d="M0 0 C0.639375 0.78375 1.27875 1.5675 1.9375 2.375 C2.618125 3.24125 3.29875 4.1075 4 5 C4.33 5.66 4.66 6.32 5 7 C5.99 7.66 6.98 8.32 8 9 C6.68 9 5.36 9 4 9 C4 10.98 4 12.96 4 15 C5.32 15.33 6.64 15.66 8 16 C7.34 16 6.68 16 6 16 C6 16.66 6 17.32 6 18 C5.01 17.67 4.02 17.34 3 17 C2.87625 15.246875 2.7525 13.49375 2.625 11.6875 C2.41875 9.810625 2.2125 7.93375 2 6 C1.34 5.01 0.68 4.02 0 3 C0 2.01 0 1.02 0 0 Z " fill="#E8BF92" transform="translate(59,278)"/>
<path d="M0 0 C0.66 0 1.32 0 2 0 C2 0.66 2 1.32 2 2 C0.35 2.99 -1.3 3.98 -3 5 C-4.0209375 5.061875 -4.0209375 5.061875 -9.1875 5.375 C-11.105625 5.25125 -13.02375 5.1275 -15 5 C-15.66 4.01 -16.32 3.02 -17 2 C-15.96875 2.1134375 -15.96875 2.1134375 -10.75 2.6875 C-8.5225 2.790625 -6.295 2.89375 -4 3 C-2.68 2.01 -1.36 1.02 0 0 Z " fill="#ED811B" transform="translate(213,49)"/>
<path d="M0 0 C0.66 0 1.32 0 2 0 C2 0.66 2 1.32 2 2 C3.32 2.33 4.64 2.66 6 3 C7.8975 3.350625 9.795 3.70125 11.75 4.0625 C13.4825 4.371875 15.215 4.68125 17 5 C17 5.33 17 5.66 17 6 C14.7725 6.103125 12.545 6.20625 10.25 6.3125 C9.05375 6.2609375 9.05375 6.2609375 3 6 C1.68 4.35 0.36 2.7 -1 1 C-0.67 0.67 -0.34 0.34 0 0 Z " fill="#DA771D" transform="translate(342,256)"/>
<path d="M0 0 C0.66 0 1.32 0 2 0 C2.66 3.63 3.32 7.26 4 11 C3.01 11 2.02 11 1 11 C0.896875 10.360625 0.79375 9.72125 0.6875 9.0625 C0.460625 8.381875 0.23375 7.70125 0 7 C-0.99 6.67 -1.98 6.34 -3 6 C-1.68 6 -0.36 6 1 6 C0.67 4.02 0.34 2.04 0 0 Z " fill="#DC9F63" transform="translate(338,246)"/>
<path d="M0 0 C4.95 0 9.9 0 15 0 C14.67 0.66 14.34 1.32 14 2 C11.36 1.67 8.72 1.34 6 1 C6 2.65 6 4.3 6 6 C5.67 5.01 5.34 4.02 5 3 C4.01 2.835 4.01 2.835 -1 2 C-0.67 1.34 -0.34 0.68 0 0 Z " fill="#E6BB8C" transform="translate(198,54)"/>
<path d="M0 0 C2.97 0 5.94 0 9 0 C9 0.33 9 0.66 9 1 C7.35 1.33 5.7 1.66 4 2 C3.67 3.32 3.34 4.64 3 6 C2.01 6 1.02 6 0 6 C0 4.02 0 2.04 0 0 Z " fill="#3A2211" transform="translate(63,287)"/>
<path d="M0 0 C0.3403125 0.04125 0.3403125 0.04125 2.0625 0.25 C2.701875 0.4975 3.34125 0.745 4 1 C4.33 1.66 4.66 2.32 5 3 C4.236875 3.28875 3.47375 3.5775 2.6875 3.875 C2.2440625 4.060625 2.2440625 4.060625 0 5 C-0.99 5.66 -1.98 6.32 -3 7 C-2.87625 6.21625 -2.7525 5.4325 -2.625 4.625 C-2.41875 3.75875 -2.2125 2.8925 -2 2 C-1.34 1.34 -0.68 0.68 0 0 Z " fill="#352821" transform="translate(192,52)"/>
<path d="M0 0 C0.556875 0.0721875 0.556875 0.0721875 3.375 0.4375 C4.57125 0.623125 5.7675 0.80875 7 1 C7.66 1.33 8.32 1.66 9 2 C9 2.66 9 3.32 9 4 C6.03 3.67 3.06 3.34 0 3 C0 2.01 0 1.02 0 0 Z " fill="#E9B77F" transform="translate(248,352)"/>
<path d="M0 0 C1.32 0 2.64 0 4 0 C3.67 1.65 3.34 3.3 3 5 C1.68 5.33 0.36 5.66 -1 6 C-0.67 4.02 -0.34 2.04 0 0 Z " fill="#382517" transform="translate(63,296)"/>
<path d="M0 0 C0.226875 0.556875 0.45375 1.11375 0.6875 1.6875 C0.790625 2.450625 0.89375 3.21375 1 4 C0.5875 4.845625 0.175 5.69125 -0.25 6.5625 C-0.8275 7.366875 -1.405 8.17125 -2 9 C-2.515625 9.598125 -3.03125 10.19625 -3.5625 10.8125 C-4.036875 11.204375 -4.51125 11.59625 -5 12 C-5.66 12 -6.32 12 -7 12 C-6.67 10.68 -6.34 9.36 -6 8 C-5.01 8 -4.02 8 -3 8 C-3 7.34 -3 6.68 -3 6 C-2.34 6 -1.68 6 -1 6 C-0.67 4.02 -0.34 2.04 0 0 Z " fill="#D48232" transform="translate(62,295)"/>
<path d="M0 0 C0.99 0.165 0.99 0.165 6 1 C5.67 2.98 5.34 4.96 5 7 C3.68 6.67 2.36 6.34 1 6 C1.20625 5.38125 1.4125 4.7625 1.625 4.125 C1.74875 3.42375 1.8725 2.7225 2 2 C1.34 1.34 0.68 0.68 0 0 Z " fill="#372113" transform="translate(226,360)"/>
<path d="M0 0 C1.32 0.33 2.64 0.66 4 1 C2.02 2.98 0.04 4.96 -2 7 C-2.99 6.67 -3.98 6.34 -5 6 C-3.35 4.02 -1.7 2.04 0 0 Z " fill="#444348" transform="translate(308,294)"/>
<path d="M0 0 C1.32 0.33 2.64 0.66 4 1 C2.515 1.165 2.515 1.165 -5 2 C-5 2.66 -5 3.32 -5 4 C-7.64 3.67 -10.28 3.34 -13 3 C-13 2.67 -13 2.34 -13 2 C-10.9375 1.649375 -8.875 1.29875 -6.75 0.9375 C-4.5225 0.628125 -2.295 0.31875 0 0 Z " fill="#7C7B7F" transform="translate(251,258)"/>
<path d="M0 0 C0.99 0 1.98 0 3 0 C3.33 1.98 3.66 3.96 4 6 C2.02 6 0.04 6 -2 6 C-1.01 5.67 -0.02 5.34 1 5 C1 4.01 1 3.02 1 2 C-0.32 1.67 -1.64 1.34 -3 1 C-2.01 0.67 -1.02 0.34 0 0 Z " fill="#2F1B0E" transform="translate(335,246)"/>
<path d="M0 0 C0.66 0 1.32 0 2 0 C1.731875 0.721875 1.46375 1.44375 1.1875 2.1875 C0.795625 3.115625 0.40375 4.04375 0 5 C-0.53625 5.928125 -1.0725 6.85625 -1.625 7.8125 C-2.07875 8.534375 -2.5325 9.25625 -3 10 C-3.2475 9.46375 -3.495 8.9275 -3.75 8.375 C-3.8325 7.59125 -3.915 6.8075 -4 6 C-3.401875 4.9275 -2.80375 3.855 -2.1875 2.75 C-1.465625 1.8425 -0.74375 0.935 0 0 Z " fill="#515255" transform="translate(97,214)"/>
<path d="M0 0 C0.33 0 0.66 0 1 0 C1 1.98 1 3.96 1 6 C-0.65 6.33 -2.3 6.66 -4 7 C-4 5.02 -4 3.04 -4 1 C-3.67 1.66 -3.34 2.32 -3 3 C-2.01 3 -1.02 3 0 3 C0 2.01 0 1.02 0 0 Z " fill="#22120B" transform="translate(246,347)"/>
<path d="M0 0 C0.2475 0.53625 0.495 1.0725 0.75 1.625 C0.8325 2.40875 0.915 3.1925 1 4 C0.360625 5.0725 -0.27875 6.145 -0.9375 7.25 C-1.618125 8.1575 -2.29875 9.065 -3 10 C-3.2475 9.46375 -3.495 8.9275 -3.75 8.375 C-3.8325 7.59125 -3.915 6.8075 -4 6 C-3.360625 4.9275 -2.72125 3.855 -2.0625 2.75 C-1.381875 1.8425 -0.70125 0.935 0 0 Z " fill="#47474B" transform="translate(79,243)"/>
<path d="M0 0 C2.041875 -0.061875 4.08375 -0.12375 6.1875 -0.1875 C8.105625 -0.125625 10.02375 -0.06375 12 0 C12 0.33 12 0.66 12 1 C10.453125 1.144375 8.90625 1.28875 7.3125 1.4375 C5.559375 1.623125 3.80625 1.80875 2 2 C1.484375 2.0928125 1.484375 2.0928125 -1.125 2.5625 C-1.74375 2.706875 -2.3625 2.85125 -3 3 C-2.01 2.01 -1.02 1.02 0 0 Z " fill="#D98538" transform="translate(40,276)"/>
<path d="M0 0 C0.66 0 1.32 0 2 0 C2.33 1.32 2.66 2.64 3 4 C2.175 4.495 2.175 4.495 -2 7 C-2.33 6.01 -2.66 5.02 -3 4 C-2.34 4 -1.68 4 -1 4 C-0.67 2.68 -0.34 1.36 0 0 Z " fill="#462C1A" transform="translate(344,228)"/>
<path d="M0 0 C0.825 0.165 0.825 0.165 5 1 C5 1.66 5 2.32 5 3 C5.99 3.33 6.98 3.66 8 4 C7.67 4.165 7.67 4.165 6 5 C5.154375 4.7525 4.30875 4.505 3.4375 4.25 C2.633125 3.8375 1.82875 3.425 1 3 C0.67 2.01 0.34 1.02 0 0 Z " fill="#E4842D" transform="translate(234,380)"/>
<path d="M0 0 C0.66 0 1.32 0 2 0 C1.67 0.99 1.34 1.98 1 3 C0.34 3 -0.32 3 -1 3 C-1.66 4.98 -2.32 6.96 -3 9 C-3.66 9 -4.32 9 -5 9 C-4.731875 8.2575 -4.46375 7.515 -4.1875 6.75 C-3.9915625 6.29625 -3.9915625 6.29625 -3 4 C-2.505 3.236875 -2.01 2.47375 -1.5 1.6875 C-1.005 1.130625 -0.51 0.57375 0 0 Z " fill="#DB8B41" transform="translate(35,279)"/>
<path d="M0 0 C1.85625 -0.020625 3.7125 -0.04125 5.625 -0.0625 C6.511875 -0.0521875 6.511875 -0.0521875 11 0 C11 0.33 11 0.66 11 1 C10.113125 1.185625 10.113125 1.185625 5.625 2.125 C3.76875 2.41375 1.9125 2.7025 0 3 C-0.66 2.34 -1.32 1.68 -2 1 C-1.34 0.67 -0.68 0.34 0 0 Z " fill="#E0791A" transform="translate(348,231)"/>
<path d="M0 0 C0.33 0.99 0.66 1.98 1 3 C1.66 3 2.32 3 3 3 C2.67 6.3 2.34 9.6 2 13 C1.67 13 1.34 13 1 13 C0.67 8.71 0.34 4.42 0 0 Z " fill="#7B7B7E" transform="translate(211,117)"/>
</svg>
